<mxfile host="app.diagrams.net" modified="2022-01-06T05:30:45.872Z" agent="5.0 (Windows NT 10.0; Win64; x64) AppleWebKit/537.36 (KHTML, like Gecko) Chrome/96.0.4664.110 Safari/537.36 Edg/96.0.1054.62" etag="HVbn-CgpbL5e8wvE-vfU" version="16.2.2" type="github">
  <diagram id="NN0y3WyNkyOe7qQfY7lL" name="第 1 页">
    <mxGraphModel dx="554" dy="634" grid="1" gridSize="10" guides="1" tooltips="1" connect="1" arrows="1" fold="1" page="1" pageScale="1" pageWidth="827" pageHeight="1169" math="0" shadow="0">
      <root>
        <mxCell id="0" />
        <mxCell id="1" parent="0" />
        <mxCell id="WIrS2NorhR0GccS97uFX-5" style="edgeStyle=orthogonalEdgeStyle;rounded=0;orthogonalLoop=1;jettySize=auto;html=1;" parent="1" source="WIrS2NorhR0GccS97uFX-1" target="WIrS2NorhR0GccS97uFX-4" edge="1">
          <mxGeometry relative="1" as="geometry" />
        </mxCell>
        <mxCell id="WIrS2NorhR0GccS97uFX-7" style="edgeStyle=orthogonalEdgeStyle;rounded=0;orthogonalLoop=1;jettySize=auto;html=1;exitX=0.5;exitY=1;exitDx=0;exitDy=0;" parent="1" source="WIrS2NorhR0GccS97uFX-1" target="WIrS2NorhR0GccS97uFX-6" edge="1">
          <mxGeometry relative="1" as="geometry" />
        </mxCell>
        <mxCell id="WIrS2NorhR0GccS97uFX-1" value="73年10月21日" style="rounded=0;whiteSpace=wrap;html=1;" parent="1" vertex="1">
          <mxGeometry x="160" width="90" height="30" as="geometry" />
        </mxCell>
        <mxCell id="WIrS2NorhR0GccS97uFX-4" value="出生" style="rounded=0;whiteSpace=wrap;html=1;" parent="1" vertex="1">
          <mxGeometry x="290" width="90" height="30" as="geometry" />
        </mxCell>
        <mxCell id="WIrS2NorhR0GccS97uFX-9" value="" style="edgeStyle=orthogonalEdgeStyle;rounded=0;orthogonalLoop=1;jettySize=auto;html=1;" parent="1" source="WIrS2NorhR0GccS97uFX-6" target="WIrS2NorhR0GccS97uFX-8" edge="1">
          <mxGeometry relative="1" as="geometry" />
        </mxCell>
        <mxCell id="WIrS2NorhR0GccS97uFX-11" style="edgeStyle=orthogonalEdgeStyle;rounded=0;orthogonalLoop=1;jettySize=auto;html=1;exitX=0.5;exitY=1;exitDx=0;exitDy=0;" parent="1" source="WIrS2NorhR0GccS97uFX-6" target="WIrS2NorhR0GccS97uFX-10" edge="1">
          <mxGeometry relative="1" as="geometry" />
        </mxCell>
        <mxCell id="WIrS2NorhR0GccS97uFX-6" value="01年8月22日" style="rounded=0;whiteSpace=wrap;html=1;" parent="1" vertex="1">
          <mxGeometry x="160" y="75" width="90" height="30" as="geometry" />
        </mxCell>
        <mxCell id="WIrS2NorhR0GccS97uFX-8" value="与山崎克结婚" style="rounded=0;whiteSpace=wrap;html=1;" parent="1" vertex="1">
          <mxGeometry x="331" y="75" width="90" height="30" as="geometry" />
        </mxCell>
        <mxCell id="WIrS2NorhR0GccS97uFX-13" style="edgeStyle=orthogonalEdgeStyle;rounded=0;orthogonalLoop=1;jettySize=auto;html=1;exitX=1;exitY=0.5;exitDx=0;exitDy=0;" parent="1" source="WIrS2NorhR0GccS97uFX-10" target="WIrS2NorhR0GccS97uFX-12" edge="1">
          <mxGeometry relative="1" as="geometry" />
        </mxCell>
        <mxCell id="WIrS2NorhR0GccS97uFX-15" style="edgeStyle=orthogonalEdgeStyle;rounded=0;orthogonalLoop=1;jettySize=auto;html=1;exitX=0.5;exitY=1;exitDx=0;exitDy=0;entryX=0.5;entryY=0;entryDx=0;entryDy=0;" parent="1" target="Df0k519SetaLiw9mAWVr-11" edge="1">
          <mxGeometry relative="1" as="geometry">
            <mxPoint x="204.5" y="195" as="sourcePoint" />
            <mxPoint x="204.5" y="365" as="targetPoint" />
          </mxGeometry>
        </mxCell>
        <mxCell id="Df0k519SetaLiw9mAWVr-5" style="edgeStyle=orthogonalEdgeStyle;rounded=0;orthogonalLoop=1;jettySize=auto;html=1;exitX=0.5;exitY=1;exitDx=0;exitDy=0;" edge="1" parent="1" source="WIrS2NorhR0GccS97uFX-10" target="Df0k519SetaLiw9mAWVr-4">
          <mxGeometry relative="1" as="geometry" />
        </mxCell>
        <mxCell id="WIrS2NorhR0GccS97uFX-10" value="04年6月27日" style="rounded=0;whiteSpace=wrap;html=1;" parent="1" vertex="1">
          <mxGeometry x="160" y="135" width="90" height="30" as="geometry" />
        </mxCell>
        <mxCell id="WIrS2NorhR0GccS97uFX-12" value="与山崎克离婚，在新宿客服中心担任派遣员工" style="rounded=0;whiteSpace=wrap;html=1;" parent="1" vertex="1">
          <mxGeometry x="285" y="135" width="155" height="30" as="geometry" />
        </mxCell>
        <mxCell id="WIrS2NorhR0GccS97uFX-17" value="" style="edgeStyle=orthogonalEdgeStyle;rounded=0;orthogonalLoop=1;jettySize=auto;html=1;" parent="1" source="WIrS2NorhR0GccS97uFX-14" target="WIrS2NorhR0GccS97uFX-16" edge="1">
          <mxGeometry relative="1" as="geometry" />
        </mxCell>
        <mxCell id="WIrS2NorhR0GccS97uFX-19" value="" style="edgeStyle=orthogonalEdgeStyle;rounded=0;orthogonalLoop=1;jettySize=auto;html=1;" parent="1" source="WIrS2NorhR0GccS97uFX-14" target="WIrS2NorhR0GccS97uFX-18" edge="1">
          <mxGeometry relative="1" as="geometry" />
        </mxCell>
        <mxCell id="WIrS2NorhR0GccS97uFX-14" value="09年11月1日" style="rounded=0;whiteSpace=wrap;html=1;" parent="1" vertex="1">
          <mxGeometry x="160" y="335" width="90" height="30" as="geometry" />
        </mxCell>
        <mxCell id="WIrS2NorhR0GccS97uFX-16" value="与河濑干男结婚" style="rounded=0;whiteSpace=wrap;html=1;" parent="1" vertex="1">
          <mxGeometry x="330" y="335" width="90" height="30" as="geometry" />
        </mxCell>
        <mxCell id="WIrS2NorhR0GccS97uFX-21" value="" style="edgeStyle=orthogonalEdgeStyle;rounded=0;orthogonalLoop=1;jettySize=auto;html=1;" parent="1" source="WIrS2NorhR0GccS97uFX-18" target="WIrS2NorhR0GccS97uFX-20" edge="1">
          <mxGeometry relative="1" as="geometry" />
        </mxCell>
        <mxCell id="WIrS2NorhR0GccS97uFX-25" value="" style="edgeStyle=orthogonalEdgeStyle;rounded=0;orthogonalLoop=1;jettySize=auto;html=1;" parent="1" source="WIrS2NorhR0GccS97uFX-18" target="WIrS2NorhR0GccS97uFX-24" edge="1">
          <mxGeometry relative="1" as="geometry" />
        </mxCell>
        <mxCell id="WIrS2NorhR0GccS97uFX-18" value="10年" style="rounded=0;whiteSpace=wrap;html=1;" parent="1" vertex="1">
          <mxGeometry x="160" y="445" width="90" height="30" as="geometry" />
        </mxCell>
        <mxCell id="WIrS2NorhR0GccS97uFX-23" value="" style="edgeStyle=orthogonalEdgeStyle;rounded=0;orthogonalLoop=1;jettySize=auto;html=1;" parent="1" source="WIrS2NorhR0GccS97uFX-20" target="WIrS2NorhR0GccS97uFX-22" edge="1">
          <mxGeometry relative="1" as="geometry" />
        </mxCell>
        <mxCell id="WIrS2NorhR0GccS97uFX-20" value="7月24日" style="rounded=0;whiteSpace=wrap;html=1;" parent="1" vertex="1">
          <mxGeometry x="330" y="445" width="90" height="30" as="geometry" />
        </mxCell>
        <mxCell id="WIrS2NorhR0GccS97uFX-22" value="河濑干男死" style="rounded=0;whiteSpace=wrap;html=1;" parent="1" vertex="1">
          <mxGeometry x="500" y="445" width="90" height="30" as="geometry" />
        </mxCell>
        <mxCell id="WIrS2NorhR0GccS97uFX-27" value="" style="edgeStyle=orthogonalEdgeStyle;rounded=0;orthogonalLoop=1;jettySize=auto;html=1;" parent="1" source="WIrS2NorhR0GccS97uFX-24" target="WIrS2NorhR0GccS97uFX-26" edge="1">
          <mxGeometry relative="1" as="geometry" />
        </mxCell>
        <mxCell id="WIrS2NorhR0GccS97uFX-41" style="edgeStyle=orthogonalEdgeStyle;rounded=0;orthogonalLoop=1;jettySize=auto;html=1;exitX=1;exitY=0.5;exitDx=0;exitDy=0;" parent="1" source="WIrS2NorhR0GccS97uFX-24" target="WIrS2NorhR0GccS97uFX-36" edge="1">
          <mxGeometry relative="1" as="geometry" />
        </mxCell>
        <mxCell id="WIrS2NorhR0GccS97uFX-43" value="" style="edgeStyle=orthogonalEdgeStyle;rounded=0;orthogonalLoop=1;jettySize=auto;html=1;" parent="1" source="WIrS2NorhR0GccS97uFX-24" target="WIrS2NorhR0GccS97uFX-42" edge="1">
          <mxGeometry relative="1" as="geometry" />
        </mxCell>
        <mxCell id="WIrS2NorhR0GccS97uFX-24" value="11年" style="rounded=0;whiteSpace=wrap;html=1;" parent="1" vertex="1">
          <mxGeometry x="160" y="555" width="90" height="30" as="geometry" />
        </mxCell>
        <mxCell id="WIrS2NorhR0GccS97uFX-29" value="" style="edgeStyle=orthogonalEdgeStyle;rounded=0;orthogonalLoop=1;jettySize=auto;html=1;" parent="1" source="WIrS2NorhR0GccS97uFX-26" target="WIrS2NorhR0GccS97uFX-28" edge="1">
          <mxGeometry relative="1" as="geometry" />
        </mxCell>
        <mxCell id="WIrS2NorhR0GccS97uFX-26" value="2月10日" style="rounded=0;whiteSpace=wrap;html=1;" parent="1" vertex="1">
          <mxGeometry x="330" y="530" width="90" height="30" as="geometry" />
        </mxCell>
        <mxCell id="WIrS2NorhR0GccS97uFX-28" value="与新垣清彦结婚" style="rounded=0;whiteSpace=wrap;html=1;" parent="1" vertex="1">
          <mxGeometry x="500" y="530" width="90" height="30" as="geometry" />
        </mxCell>
        <mxCell id="WIrS2NorhR0GccS97uFX-39" value="" style="edgeStyle=orthogonalEdgeStyle;rounded=0;orthogonalLoop=1;jettySize=auto;html=1;" parent="1" source="WIrS2NorhR0GccS97uFX-36" target="WIrS2NorhR0GccS97uFX-38" edge="1">
          <mxGeometry relative="1" as="geometry" />
        </mxCell>
        <mxCell id="WIrS2NorhR0GccS97uFX-36" value="12月10日" style="rounded=0;whiteSpace=wrap;html=1;" parent="1" vertex="1">
          <mxGeometry x="330" y="575" width="90" height="30" as="geometry" />
        </mxCell>
        <mxCell id="WIrS2NorhR0GccS97uFX-38" value="新垣清彦死" style="rounded=0;whiteSpace=wrap;html=1;" parent="1" vertex="1">
          <mxGeometry x="500" y="575" width="90" height="30" as="geometry" />
        </mxCell>
        <mxCell id="WIrS2NorhR0GccS97uFX-45" value="" style="edgeStyle=orthogonalEdgeStyle;rounded=0;orthogonalLoop=1;jettySize=auto;html=1;" parent="1" source="WIrS2NorhR0GccS97uFX-42" target="WIrS2NorhR0GccS97uFX-44" edge="1">
          <mxGeometry relative="1" as="geometry" />
        </mxCell>
        <mxCell id="WIrS2NorhR0GccS97uFX-54" value="" style="edgeStyle=orthogonalEdgeStyle;rounded=0;orthogonalLoop=1;jettySize=auto;html=1;" parent="1" source="WIrS2NorhR0GccS97uFX-42" target="WIrS2NorhR0GccS97uFX-53" edge="1">
          <mxGeometry relative="1" as="geometry" />
        </mxCell>
        <mxCell id="WIrS2NorhR0GccS97uFX-62" style="edgeStyle=orthogonalEdgeStyle;rounded=0;orthogonalLoop=1;jettySize=auto;html=1;exitX=1;exitY=0.5;exitDx=0;exitDy=0;entryX=0;entryY=0.25;entryDx=0;entryDy=0;" parent="1" source="WIrS2NorhR0GccS97uFX-42" target="WIrS2NorhR0GccS97uFX-48" edge="1">
          <mxGeometry relative="1" as="geometry" />
        </mxCell>
        <mxCell id="WIrS2NorhR0GccS97uFX-42" value="12年" style="rounded=0;whiteSpace=wrap;html=1;" parent="1" vertex="1">
          <mxGeometry x="160" y="690" width="90" height="30" as="geometry" />
        </mxCell>
        <mxCell id="WIrS2NorhR0GccS97uFX-47" value="" style="edgeStyle=orthogonalEdgeStyle;rounded=0;orthogonalLoop=1;jettySize=auto;html=1;" parent="1" source="WIrS2NorhR0GccS97uFX-44" target="WIrS2NorhR0GccS97uFX-46" edge="1">
          <mxGeometry relative="1" as="geometry" />
        </mxCell>
        <mxCell id="WIrS2NorhR0GccS97uFX-44" value="3月12日" style="rounded=0;whiteSpace=wrap;html=1;" parent="1" vertex="1">
          <mxGeometry x="330" y="665" width="90" height="30" as="geometry" />
        </mxCell>
        <mxCell id="WIrS2NorhR0GccS97uFX-46" value="迁居Will palace国分寺" style="rounded=0;whiteSpace=wrap;html=1;" parent="1" vertex="1">
          <mxGeometry x="500" y="665" width="90" height="30" as="geometry" />
        </mxCell>
        <mxCell id="WIrS2NorhR0GccS97uFX-52" value="" style="edgeStyle=orthogonalEdgeStyle;rounded=0;orthogonalLoop=1;jettySize=auto;html=1;" parent="1" source="WIrS2NorhR0GccS97uFX-48" target="WIrS2NorhR0GccS97uFX-51" edge="1">
          <mxGeometry relative="1" as="geometry" />
        </mxCell>
        <mxCell id="WIrS2NorhR0GccS97uFX-48" value="7月1日" style="rounded=0;whiteSpace=wrap;html=1;" parent="1" vertex="1">
          <mxGeometry x="330" y="720" width="90" height="30" as="geometry" />
        </mxCell>
        <mxCell id="WIrS2NorhR0GccS97uFX-51" value="与沼尻太一结婚" style="rounded=0;whiteSpace=wrap;html=1;" parent="1" vertex="1">
          <mxGeometry x="500" y="720" width="90" height="30" as="geometry" />
        </mxCell>
        <mxCell id="WIrS2NorhR0GccS97uFX-56" value="" style="edgeStyle=orthogonalEdgeStyle;rounded=0;orthogonalLoop=1;jettySize=auto;html=1;" parent="1" source="WIrS2NorhR0GccS97uFX-53" target="WIrS2NorhR0GccS97uFX-55" edge="1">
          <mxGeometry relative="1" as="geometry" />
        </mxCell>
        <mxCell id="WIrS2NorhR0GccS97uFX-63" style="edgeStyle=orthogonalEdgeStyle;rounded=0;orthogonalLoop=1;jettySize=auto;html=1;exitX=1;exitY=0.5;exitDx=0;exitDy=0;entryX=0;entryY=0.5;entryDx=0;entryDy=0;" parent="1" source="WIrS2NorhR0GccS97uFX-53" target="WIrS2NorhR0GccS97uFX-59" edge="1">
          <mxGeometry relative="1" as="geometry" />
        </mxCell>
        <mxCell id="WIrS2NorhR0GccS97uFX-65" value="" style="edgeStyle=orthogonalEdgeStyle;rounded=0;orthogonalLoop=1;jettySize=auto;html=1;" parent="1" source="WIrS2NorhR0GccS97uFX-53" target="WIrS2NorhR0GccS97uFX-64" edge="1">
          <mxGeometry relative="1" as="geometry" />
        </mxCell>
        <mxCell id="WIrS2NorhR0GccS97uFX-53" value="13年" style="rounded=0;whiteSpace=wrap;html=1;" parent="1" vertex="1">
          <mxGeometry x="160" y="805" width="90" height="30" as="geometry" />
        </mxCell>
        <mxCell id="WIrS2NorhR0GccS97uFX-58" value="" style="edgeStyle=orthogonalEdgeStyle;rounded=0;orthogonalLoop=1;jettySize=auto;html=1;" parent="1" source="WIrS2NorhR0GccS97uFX-55" target="WIrS2NorhR0GccS97uFX-57" edge="1">
          <mxGeometry relative="1" as="geometry" />
        </mxCell>
        <mxCell id="WIrS2NorhR0GccS97uFX-55" value="4月7日" style="rounded=0;whiteSpace=wrap;html=1;" parent="1" vertex="1">
          <mxGeometry x="330" y="775" width="90" height="30" as="geometry" />
        </mxCell>
        <mxCell id="WIrS2NorhR0GccS97uFX-57" value="沼尻太一死" style="rounded=0;whiteSpace=wrap;html=1;" parent="1" vertex="1">
          <mxGeometry x="500" y="775" width="90" height="30" as="geometry" />
        </mxCell>
        <mxCell id="WIrS2NorhR0GccS97uFX-61" value="" style="edgeStyle=orthogonalEdgeStyle;rounded=0;orthogonalLoop=1;jettySize=auto;html=1;" parent="1" source="WIrS2NorhR0GccS97uFX-59" target="WIrS2NorhR0GccS97uFX-60" edge="1">
          <mxGeometry relative="1" as="geometry" />
        </mxCell>
        <mxCell id="WIrS2NorhR0GccS97uFX-59" value="秋天" style="rounded=0;whiteSpace=wrap;html=1;" parent="1" vertex="1">
          <mxGeometry x="330" y="830" width="90" height="30" as="geometry" />
        </mxCell>
        <mxCell id="WIrS2NorhR0GccS97uFX-60" value="死于Will palace国分寺" style="rounded=0;whiteSpace=wrap;html=1;" parent="1" vertex="1">
          <mxGeometry x="500" y="830" width="90" height="30" as="geometry" />
        </mxCell>
        <mxCell id="WIrS2NorhR0GccS97uFX-67" value="" style="edgeStyle=orthogonalEdgeStyle;rounded=0;orthogonalLoop=1;jettySize=auto;html=1;" parent="1" source="WIrS2NorhR0GccS97uFX-64" target="WIrS2NorhR0GccS97uFX-66" edge="1">
          <mxGeometry relative="1" as="geometry" />
        </mxCell>
        <mxCell id="WIrS2NorhR0GccS97uFX-64" value="14年" style="rounded=0;whiteSpace=wrap;html=1;" parent="1" vertex="1">
          <mxGeometry x="160" y="915" width="90" height="30" as="geometry" />
        </mxCell>
        <mxCell id="WIrS2NorhR0GccS97uFX-69" value="" style="edgeStyle=orthogonalEdgeStyle;rounded=0;orthogonalLoop=1;jettySize=auto;html=1;" parent="1" source="WIrS2NorhR0GccS97uFX-66" target="WIrS2NorhR0GccS97uFX-68" edge="1">
          <mxGeometry relative="1" as="geometry" />
        </mxCell>
        <mxCell id="WIrS2NorhR0GccS97uFX-66" value="3月4日" style="rounded=0;whiteSpace=wrap;html=1;" parent="1" vertex="1">
          <mxGeometry x="330" y="915" width="90" height="30" as="geometry" />
        </mxCell>
        <mxCell id="WIrS2NorhR0GccS97uFX-68" value="遗体被发现" style="rounded=0;whiteSpace=wrap;html=1;" parent="1" vertex="1">
          <mxGeometry x="500" y="915" width="90" height="30" as="geometry" />
        </mxCell>
        <mxCell id="Df0k519SetaLiw9mAWVr-7" value="" style="edgeStyle=orthogonalEdgeStyle;rounded=0;orthogonalLoop=1;jettySize=auto;html=1;" edge="1" parent="1" source="Df0k519SetaLiw9mAWVr-4" target="Df0k519SetaLiw9mAWVr-6">
          <mxGeometry relative="1" as="geometry" />
        </mxCell>
        <mxCell id="Df0k519SetaLiw9mAWVr-4" value="06年10月" style="rounded=0;whiteSpace=wrap;html=1;" vertex="1" parent="1">
          <mxGeometry x="160" y="200" width="90" height="30" as="geometry" />
        </mxCell>
        <mxCell id="Df0k519SetaLiw9mAWVr-6" value="辞职;任职新和人寿当保险业务员" style="rounded=0;whiteSpace=wrap;html=1;" vertex="1" parent="1">
          <mxGeometry x="330" y="200" width="120" height="30" as="geometry" />
        </mxCell>
        <mxCell id="Df0k519SetaLiw9mAWVr-13" value="" style="edgeStyle=orthogonalEdgeStyle;rounded=0;orthogonalLoop=1;jettySize=auto;html=1;" edge="1" parent="1" source="Df0k519SetaLiw9mAWVr-11" target="Df0k519SetaLiw9mAWVr-12">
          <mxGeometry relative="1" as="geometry" />
        </mxCell>
        <mxCell id="Df0k519SetaLiw9mAWVr-11" value="08年" style="rounded=0;whiteSpace=wrap;html=1;" vertex="1" parent="1">
          <mxGeometry x="160" y="260" width="90" height="30" as="geometry" />
        </mxCell>
        <mxCell id="Df0k519SetaLiw9mAWVr-12" value="6月" style="rounded=0;whiteSpace=wrap;html=1;" vertex="1" parent="1">
          <mxGeometry x="330" y="260" width="90" height="30" as="geometry" />
        </mxCell>
      </root>
    </mxGraphModel>
  </diagram>
</mxfile>
